<svg xmlns="http://www.w3.org/2000/svg" version="1.1" xmlns:xlink="http://www.w3.org/1999/xlink" xmlns:svgjs="http://svgjs.dev/svgjs" width="1440" height="560" preserveAspectRatio="none" viewBox="0 0 1440 560"><g mask="url(&quot;#SvgjsMask1021&quot;)" fill="none"><rect width="1440" height="560" x="0" y="0" fill="rgba(120, 138, 139, 1)"></rect><path d="M32.301,632.005C69.076,633.861,109.996,626.041,128.094,593.974C145.998,562.251,131.384,523.357,110.439,493.554C92.776,468.42,63.02,457.91,32.301,457.663C1.046,457.412,-31.368,465.845,-48.046,492.279C-65.737,520.319,-64.619,556.34,-48.091,585.082C-31.513,613.911,-0.913,630.329,32.301,632.005" fill="rgba(45, 59, 57, 0.61)" class="triangle-float1"></path><path d="M625.261,312.809C669.364,312.085,704.755,281.711,727.867,244.142C752.416,204.237,770.012,155.422,747.287,114.451C724.071,72.595,673.095,57.5,625.261,59.154C580.499,60.701,539.388,83.606,517.024,122.412C494.69,161.165,494.549,208.723,516.654,247.607C539.02,286.951,580.01,313.551,625.261,312.809" fill="rgba(45, 59, 57, 0.61)" class="triangle-float1"></path><path d="M1283.568834732973 93.59374221640172L1253.5632796846644-4.550006082428723 1185.4250864341427 123.59929726471043z" fill="rgba(45, 59, 57, 0.61)" class="triangle-float1"></path><path d="M793.0069080698969 200.0965695063486L794.67867190215 295.8718553118098 937.5057186942151 245.4765666606997z" fill="rgba(45, 59, 57, 0.61)" class="triangle-float1"></path><path d="M345.834,222.653C379.055,222.22,403.022,193.222,417.405,163.273C429.792,137.48,426.109,108.62,412.748,83.318C398.236,55.836,376.814,30.199,345.834,27.734C310.819,24.948,274.334,40.124,257.531,70.97C241.267,100.826,253.855,135.798,270.96,165.18C287.926,194.323,312.115,223.092,345.834,222.653" fill="rgba(45, 59, 57, 0.61)" class="triangle-float3"></path><path d="M784.2748860866949 137.23444835825762L800.7683814560809 271.5631884547311 918.6036261831684 120.74095298887164z" fill="rgba(45, 59, 57, 0.61)" class="triangle-float3"></path><path d="M1075.179,577.925C1124.555,573.72,1160.433,538.207,1187.713,496.837C1219.304,448.929,1258.481,392.289,1230.706,342.072C1202.525,291.121,1133.399,292.648,1075.179,293.374C1018.76,294.078,957.648,299.003,926.229,345.869C891.719,397.346,890.23,467.163,923.707,519.318C955.05,568.149,1017.363,582.848,1075.179,577.925" fill="rgba(45, 59, 57, 0.61)" class="triangle-float2"></path><path d="M983.507,292.345C1017.355,291.771,1052.537,284.865,1071.298,256.686C1092.037,225.535,1095.691,184.442,1076.887,152.086C1058.163,119.868,1020.742,104.157,983.507,105.62C948.742,106.986,920.015,129.177,902.026,158.957C883.283,189.985,871.503,228.82,890.4,259.755C908.772,289.831,948.269,292.943,983.507,292.345" fill="rgba(45, 59, 57, 0.61)" class="triangle-float1"></path><path d="M911.959188365562 306.67423496592886L858.3298161834532 166.56598638657493 774.0331521576722 267.0268385830064z" fill="rgba(45, 59, 57, 0.61)" class="triangle-float3"></path><path d="M1234.887,326.337C1258.684,325.165,1278.092,309.76,1290.375,289.344C1303.132,268.142,1310.865,242.014,1298.525,220.567C1286.162,199.079,1259.659,191.921,1234.887,192.902C1211.959,193.81,1191.831,205.983,1179.423,225.285C1165.745,246.562,1156.878,273.146,1169.048,295.32C1181.559,318.114,1208.916,327.616,1234.887,326.337" fill="rgba(45, 59, 57, 0.61)" class="triangle-float3"></path><path d="M365.873,623.85C397.347,625.3,429.78,613.075,445.384,585.703C460.868,558.54,454.128,524.91,437.294,498.563C421.795,474.306,394.645,460.361,365.873,461.263C338.606,462.118,315.424,479.17,301.809,502.81C288.223,526.4,285.377,554.858,298.112,578.919C311.7,604.592,336.857,622.513,365.873,623.85" fill="rgba(45, 59, 57, 0.61)" class="triangle-float3"></path><path d="M1198.826,685.959C1246.16,683.288,1291.104,666.424,1317.846,627.277C1348.816,581.941,1368.518,523.959,1342.533,475.592C1315.516,425.305,1255.837,402.829,1198.826,405.744C1146.6,408.414,1105.813,444.496,1078.5,489.09C1049.574,536.318,1025.142,594.908,1054.024,642.163C1082.21,688.278,1144.865,689.004,1198.826,685.959" fill="rgba(45, 59, 57, 0.61)" class="triangle-float3"></path></g><defs><mask id="SvgjsMask1021"><rect width="1440" height="560" fill="#ffffff"></rect></mask><style>
                @keyframes float1 {
                    0%{transform: translate(0, 0)}
                    50%{transform: translate(-10px, 0)}
                    100%{transform: translate(0, 0)}
                }

                .triangle-float1 {
                    animation: float1 5s infinite;
                }

                @keyframes float2 {
                    0%{transform: translate(0, 0)}
                    50%{transform: translate(-5px, -5px)}
                    100%{transform: translate(0, 0)}
                }

                .triangle-float2 {
                    animation: float2 4s infinite;
                }

                @keyframes float3 {
                    0%{transform: translate(0, 0)}
                    50%{transform: translate(0, -10px)}
                    100%{transform: translate(0, 0)}
                }

                .triangle-float3 {
                    animation: float3 6s infinite;
                }
            </style></defs></svg>