<svg xmlns="http://www.w3.org/2000/svg" version="1.1" xmlns:xlink="http://www.w3.org/1999/xlink" xmlns:svgjs="http://svgjs.dev/svgjs" width="700" height="1200" preserveAspectRatio="none" viewBox="0 0 700 1200"><g mask="url(&quot;#SvgjsMask1020&quot;)" fill="none"><rect width="700" height="1200" x="0" y="0" fill="rgba(32, 37, 37, 1)"></rect><path d="M22.92 175C51.6 78.8 80.5 77.77 148.08 0C156.54 -9.73 161.54 0 175 0C262.5 0 262.5 0 350 0C437.5 0 437.5 0 525 0C612.5 0 648.9 -36.4 700 0C736.4 25.93 716.39 69.25 700 124.66C690.51 156.75 648.24 151.1 648.24 175C648.24 196.92 691.43 187.31 700 216.29C717.31 274.81 700 283.14 700 350C700 437.5 700 437.5 700 525C700 612.5 700 612.5 700 700C700 787.5 700 787.5 700 875C700 962.5 700 962.5 700 1050C700 1137.5 700 1137.5 700 1225C700 1225 700 1225 700 1225C612.5 1225 612.5 1225 525 1225C437.5 1225 437.5 1225 350 1225C262.5 1225 262.5 1225 175 1225C87.5 1225 43.75 1268.75 0 1225C-43.75 1181.25 0 1137.5 0 1050C0 990.91 -29.85 971.22 0 931.82C36.44 883.72 132.58 907.91 132.58 875C132.58 839.72 40.99 849.55 0 795.45C-25.3 762.05 0 747.72 0 700C0 612.5 0 612.5 0 525C0 514.07 -2.64 513.7 0 503.13C19.23 426.2 38.31 427.88 43.75 350C49.77 263.82 -0.57 253.8 22.92 175" stroke="rgba(70, 86, 86, 0.47)" stroke-width="2"></path><path d="M525 465.5C473.46 465.5 414.81 500.24 414.81 525C414.81 547.91 471.54 560.84 525 560.84C559.69 560.84 591.11 546.84 591.11 525C591.11 499.17 561.61 465.5 525 465.5" stroke="rgba(70, 86, 86, 0.47)" stroke-width="2"></path><path d="M175 679.58C158.06 679.58 141.89 684.37 141.89 700C141.89 735.41 157.11 781.67 175 781.67C193.42 781.67 214.52 734.25 214.52 700C214.52 683.21 194.37 679.58 175 679.58" stroke="rgba(70, 86, 86, 0.47)" stroke-width="2"></path><path d="M525 854C503.6 854 482.43 861.55 482.43 875C482.43 891.25 503.45 913.41 525 913.41C547.24 913.41 570 891.15 570 875C570 861.44 547.39 854 525 854" stroke="rgba(70, 86, 86, 0.47)" stroke-width="2"></path><path d="M75 175C75 112.15 114.98 102.39 175 56.69C229.9 14.89 238.49 21.49 304.84 0C325.99 -6.85 327.42 0 350 0C437.5 0 437.5 0 525 0C612.5 0 636.13 -23.63 700 0C723.63 8.74 716.46 39.32 700 64.73C659.77 126.82 586.62 122.65 586.62 175C586.62 223.01 664.19 210.17 700 265.45C720.88 297.67 700 307.73 700 350C700 437.5 700 437.5 700 525C700 534.72 702.69 544.44 700 544.44C696.86 544.44 696.51 532.78 688.33 525C609.01 449.56 616.67 400.94 525 378C447.5 358.6 425.56 393.26 350 440.32C307.54 466.76 326.3 489.5 288.95 525C238.8 572.68 230.09 606.67 175 606.67C126 606.67 80.77 573.08 80.77 525C80.77 455.68 122.45 443.04 175 371.88C187.06 355.54 210 359.26 210 350C210 341.59 186.13 350.96 175 336.54C118.63 263.46 75 252.08 75 175" stroke="rgba(70, 86, 86, 0.47)" stroke-width="2"></path><path d="M0 669.83C6.62 669.83 23.65 686.79 23.65 700C23.65 709.83 7.59 715.91 0 715.91C-4.24 715.91 0 707.96 0 700C0 684.92 -5.21 669.83 0 669.83" stroke="rgba(70, 86, 86, 0.47)" stroke-width="2"></path><path d="M354.17 700C425.33 647.05 443.83 613.55 525 613.55C584.44 613.55 635.38 655.4 635.38 700C635.38 746.46 585.87 756.39 525 795.67C450.28 843.89 437.75 828.67 364.19 875C350.25 883.78 359.22 905.88 350 905.88C339 905.88 323.75 893.84 323.75 875C323.75 812.78 338.55 809.62 350 743.75C353.76 722.12 337.83 712.15 354.17 700" stroke="rgba(70, 86, 86, 0.47)" stroke-width="2"></path><path d="M695 875C698.24 872.18 698.62 868 700 868C701.12 868 700 871.5 700 875C700 962.5 700 962.5 700 1050C700 1105.33 723.67 1118.05 700 1160.66C675.06 1205.55 655.26 1205.7 602.78 1225C567.76 1237.87 563.89 1225 525 1225C480.13 1225 445.04 1254.35 435.26 1225C415.88 1166.85 433.88 1124.85 466.67 1050C478.75 1022.41 499.12 1039.96 525 1020.12C613.28 952.46 610.74 948.24 695 875" stroke="rgba(70, 86, 86, 0.47)" stroke-width="2"></path><path d="M0 988.64C65.34 948.54 97.42 926.21 175 942.61C242.54 956.89 261.3 983.14 290.24 1050C322.41 1124.34 331.16 1173.46 297.22 1225C273.54 1260.96 236.11 1225 175 1225C87.5 1225 43.75 1268.75 0 1225C-43.75 1181.25 0 1137.5 0 1050C0 1019.32 -22.16 1002.24 0 988.64" stroke="rgba(70, 86, 86, 0.47)" stroke-width="2"></path><path d="M127.08 175C127.08 144.89 141.91 124.21 175 118.31C253.37 104.33 263.4 121.2 350 135.23C438.4 149.55 525 149.88 525 175C525 201.01 439.97 217.6 350 237.5C264.97 256.3 248.41 272.98 175 252.4C136.95 241.73 127.08 211.93 127.08 175" stroke="rgba(70, 86, 86, 0.47)" stroke-width="2"></path><path d="M525 175C476.68 173.98 473.96 68.36 473.96 0C473.96 -19.14 499.48 0 525 0C612.5 0 614.83 -2.33 700 0C702.33 0.06 701.68 3.11 700 4.79C614.18 90.61 589.7 176.37 525 175" stroke="rgba(70, 86, 86, 0.47)" stroke-width="2"></path><path d="M610 350C610 324.48 667.06 314.61 700 314.61C712.06 314.61 700 332.31 700 350C700 389.38 717.87 428.75 700 428.75C672.87 428.75 610 381.55 610 350" stroke="rgba(70, 86, 86, 0.47)" stroke-width="2"></path><path d="M164.9 525C164.9 517.57 169.59 508.59 175 508.59C180.74 508.59 187.21 517.75 187.21 525C187.21 530.33 180.9 533.75 175 533.75C169.75 533.75 164.9 530.15 164.9 525" stroke="rgba(70, 86, 86, 0.47)" stroke-width="2"></path><path d="M458.33 700C458.33 682.43 493.32 666.27 525 666.27C548.2 666.27 568.08 682.6 568.08 700C568.08 718.13 548.45 737.33 525 737.33C493.57 737.33 458.33 717.96 458.33 700" stroke="rgba(70, 86, 86, 0.47)" stroke-width="2"></path><path d="M0 1045.45C85.28 1041.58 88.97 1039.92 175 1042.05C180.74 1042.19 181.94 1044.45 183.54 1050C208.33 1135.92 231.08 1157.3 227.78 1225C226.81 1244.8 201.39 1225 175 1225C108.5 1225 84.97 1257.23 42 1225C-2.53 1191.61 15.94 1160.16 0 1093.75C-5.06 1072.66 0 1071.88 0 1050C0 1047.72 -2.22 1045.55 0 1045.45" stroke="rgba(70, 86, 86, 0.47)" stroke-width="2"></path><path d="M612.5 1050C612.5 1017.37 673.5 975 700 975C717.25 975 700 1012.5 700 1050C700 1073.16 713.94 1096.32 700 1096.32C670.19 1096.32 612.5 1078.03 612.5 1050" stroke="rgba(70, 86, 86, 0.47)" stroke-width="2"></path></g><defs><mask id="SvgjsMask1020"><rect width="700" height="1200" fill="#ffffff"></rect></mask></defs></svg>