<svg xmlns="http://www.w3.org/2000/svg" version="1.1" xmlns:xlink="http://www.w3.org/1999/xlink" xmlns:svgjs="http://svgjs.dev/svgjs" width="1440" height="560" preserveAspectRatio="none" viewBox="0 0 1440 560"><g mask="url(&quot;#SvgjsMask1013&quot;)" fill="none"><rect width="1440" height="560" x="0" y="0" fill="rgba(45, 59, 57, 1)"></rect><path d="M 0,35 C 57.6,73.2 172.8,220.4 288,226 C 403.2,231.6 460.8,80 576,63 C 691.2,46 748.8,135 864,141 C 979.2,147 1036.8,77 1152,93 C 1267.2,109 1382.4,195.4 1440,221L1440 560L0 560z" fill="rgba(64, 84, 81, 1)"></path><path d="M 0,550 C 96,503.6 288,321.4 480,318 C 672,314.6 768,533.8 960,533 C 1152,532.2 1344,357.8 1440,314L1440 560L0 560z" fill="rgba(45, 59, 57, 1)"></path></g><defs><mask id="SvgjsMask1013"><rect width="1440" height="560" fill="#ffffff"></rect></mask></defs></svg>